# xmcd
#
# Track frame offsets:
#        150
#        17187
#        37812
#        53025
#
# Disc length: 980 seconds
#
# Revision: 0
# Processed by: cddbd v1.5.1PL2 Copyright (c) Steve Scherf et al.
# Submitted via: ExactAudioCopy v0.95b3
#
DISCID=2603d204
DTITLE=T99 - MAXIMIZOR
DYEAR=1992
DGENRE=Techno
TTITLE0=Maximizor (Club Mix 1)
TTITLE1=Anasthasia
TTITLE2=Maximizor (Club Mix 2)
TTITLE3=Anasthasia (House Jam Remix)
EXTD=
EXTT0=
EXTT1=
EXTT2=
EXTT3=
PLAYORDER=
